<?xml version="1.0" standalone="no"?>
<!DOCTYPE svg PUBLIC "-//W3C//DTD SVG 20010904//EN"
 "http://www.w3.org/TR/2001/REC-SVG-20010904/DTD/svg10.dtd">
<svg version="1.0" xmlns="http://www.w3.org/2000/svg"
 width="500.000000pt" height="500.000000pt" viewBox="0 0 500.000000 500.000000"
 preserveAspectRatio="xMidYMid meet">
<metadata>
Created by potrace 1.11, written by Peter Selinger 2001-2013
</metadata>
<g transform="translate(0.000000,500.000000) scale(0.100000,-0.100000)"
fill="#000000" stroke="none">
<path d="M0 2500 l0 -2500 2500 0 2500 0 0 2500 0 2500 -2500 0 -2500 0 0
-2500z m1085 295 l50 -13 -75 -1 -75 -1 -113 -149 c-142 -187 -143 -195 -24
-199 45 -2 82 -6 82 -9 0 -12 -115 -213 -122 -213 -4 0 -23 16 -43 35 -120
121 -126 328 -12 452 90 98 203 131 332 98z m577 -22 c12 -11 18 -30 18 -60 0
-41 -1 -43 -29 -43 -25 0 -30 4 -33 28 -3 23 -8 27 -33 27 -28 0 -30 -2 -30
-39 0 -38 1 -39 60 -60 l60 -21 3 -77 c4 -99 -11 -118 -93 -118 -71 0 -95 21
-95 85 0 43 1 45 30 45 25 0 30 -4 30 -24 0 -13 7 -29 16 -37 24 -20 49 1 49
42 0 32 -3 35 -60 55 l-60 21 -3 78 c-4 101 7 115 91 115 42 0 66 -5 79 -17z
m240 0 c15 -13 18 -32 18 -108 0 -107 -9 -122 -80 -127 l-45 -3 -3 -62 c-3
-62 -3 -63 -32 -63 l-30 0 0 190 0 190 77 0 c57 0 81 -4 95 -17z m258 -13 l0
-30 -66 0 -65 0 3 -47 3 -48 48 -3 c45 -3 47 -5 47 -33 0 -28 -1 -29 -51 -29
l-50 0 3 -47 3 -48 63 -3 c61 -3 62 -3 62 -32 l0 -30 -95 0 -95 0 0 190 0 190
95 0 95 0 0 -30z m240 0 l0 -30 -65 0 -65 0 0 -50 0 -50 50 0 c49 0 50 -1 50
-30 0 -29 -1 -30 -50 -30 l-50 0 0 -50 0 -50 65 0 65 0 0 -30 0 -30 -95 0 -95
0 0 190 0 190 95 0 95 0 0 -30z m224 8 c13 -18 16 -53 16 -170 0 -185 -2 -188
-115 -188 l-75 0 0 190 0 190 79 0 c71 0 82 -2 95 -22z m240 6 c23 -22 23
-190 0 -215 -14 -16 -14 -22 0 -72 22 -75 21 -79 -16 -75 -31 3 -33 6 -47 66
-11 48 -19 62 -33 62 -16 0 -18 -9 -18 -65 l0 -65 -30 0 -30 0 0 190 0 190 79
0 c59 0 84 -4 95 -16z m138 -141 l3 -158 25 0 25 0 3 158 3 157 29 0 30 0 0
-172 c0 -205 -1 -208 -92 -208 -95 0 -98 6 -98 210 l0 170 35 0 34 0 3 -157z
m270 55 l37 -103 0 103 1 102 35 0 35 0 -2 -187 -3 -188 -30 -3 c-30 -3 -31
-1 -65 95 l-35 98 -3 -97 -3 -98 -34 0 -35 0 0 190 0 190 33 0 c32 0 33 -1 69
-102z m-1976 -60 l15 -28 -73 0 -72 0 44 45 c49 50 51 50 86 -17z m31 -175
c-17 -174 -158 -303 -330 -303 -68 0 -109 8 -105 20 4 12 422 349 432 350 5 0
6 -30 3 -67z m210 -260 c-3 -10 -5 -2 -5 17 0 19 2 27 5 18 2 -10 2 -26 0 -35z
m93 7 c0 -40 -13 -53 -24 -24 -3 8 -2 12 4 9 6 -4 10 7 10 24 0 17 2 31 5 31
3 0 5 -18 5 -40z m178 -33 c12 -3 11 -5 -5 -6 -21 -1 -23 3 -21 42 l1 42 4
-37 c3 -24 10 -38 21 -41z m20 49 c-1 -14 -5 -23 -9 -20 -7 4 0 44 7 44 2 0 3
-11 2 -24z m135 -49 c18 -4 17 -5 -5 -6 -27 -1 -28 1 -26 42 l1 42 4 -37 c3
-28 9 -38 26 -41z m214 11 c-2 -13 -4 -3 -4 22 0 25 2 35 4 23 2 -13 2 -33 0
-45z m40 0 c-2 -13 -4 -3 -4 22 0 25 2 35 4 23 2 -13 2 -33 0 -45z m225 22
c-2 -22 -6 -40 -8 -40 -2 0 -4 18 -4 40 0 22 3 40 8 40 4 0 6 -18 4 -40z m209
8 c-3 -21 -6 -26 -9 -15 -3 17 3 47 11 47 2 0 1 -15 -2 -32z m57 -9 c-3 -20
-5 -19 -9 9 -3 20 -2 29 4 23 5 -5 7 -19 5 -32z m72 18 c0 -7 -4 -6 -10 3 -8
12 -10 12 -10 1 0 -8 -3 -12 -6 -8 -9 9 6 28 17 22 5 -4 9 -12 9 -18z m-1076
-47 c10 -13 9 -13 -6 -1 -10 7 -17 23 -17 35 1 20 2 20 6 1 3 -11 10 -27 17
-35z m320 0 c10 -13 9 -13 -6 -1 -10 7 -17 23 -17 35 1 20 2 20 6 1 3 -11 10
-27 17 -35z m466 -5 c0 -11 -14 7 -31 40 -7 13 -3 12 10 -5 11 -14 21 -29 21
-35z m84 5 c10 -13 9 -13 -6 -1 -10 7 -17 23 -17 35 1 20 2 20 6 1 3 -11 10
-27 17 -35z m216 23 c0 -5 -11 -8 -25 -8 -14 0 -25 3 -25 8 0 4 11 7 25 7 14
0 25 -3 25 -7z m-900 -29 c0 -2 -7 -4 -15 -4 -8 0 -15 4 -15 10 0 5 7 7 15 4
8 -4 15 -8 15 -10z m985 6 c-3 -5 -12 -10 -18 -10 -7 0 -6 4 3 10 19 12 23 12
15 0z"/>
<path d="M1792 2668 c3 -60 4 -63 30 -66 32 -4 41 19 36 84 -3 36 -5 39 -36
42 l-33 3 3 -63z"/>
<path d="M2510 2600 c0 -129 0 -130 23 -130 40 0 47 18 47 126 0 123 -3 134
-41 134 l-29 0 0 -130z"/>
<path d="M2750 2665 l0 -66 33 3 32 3 0 60 0 60 -32 3 -33 3 0 -66z"/>
</g>
</svg>
